<svg xmlns="http://www.w3.org/2000/svg" width="780" height="170" viewBox="0 0 780 170" role="img" aria-label="Л.Е.Г.О — система внедрения управленческих изменений">
  <defs>
    <style>
      .navy{stroke:#071B35;fill:none;stroke-width:7;stroke-linecap:round;stroke-linejoin:round}
      .steel{stroke:#2F5F9F;fill:none;stroke-width:7;stroke-linecap:round;stroke-linejoin:round}
      .yellow{stroke:#F6C343;fill:none;stroke-width:8;stroke-linecap:round;stroke-linejoin:round}
      .txt{fill:#071B35;font-family:Arial, Helvetica, sans-serif;font-weight:800;letter-spacing:12px}
      .sub{fill:#071B35;font-family:Arial, Helvetica, sans-serif;font-weight:700;letter-spacing:.5px}
    </style>
    <marker id="arrowN" viewBox="0 0 10 10" refX="8" refY="5" markerWidth="7" markerHeight="7" orient="auto-start-reverse"><path d="M0 0 L10 5 L0 10" fill="#071B35"/></marker>
    <marker id="arrowS" viewBox="0 0 10 10" refX="8" refY="5" markerWidth="7" markerHeight="7" orient="auto-start-reverse"><path d="M0 0 L10 5 L0 10" fill="#2F5F9F"/></marker>
  </defs>
  <g transform="translate(30 32)">
    <circle cx="0" cy="26" r="4" fill="#071B35"/><circle cx="0" cy="53" r="4" fill="#071B35"/><circle cx="0" cy="80" r="4" fill="#071B35"/>
    <path class="navy" d="M14 26 H58" marker-end="url(#arrowN)"/><path class="navy" d="M14 53 H58" marker-end="url(#arrowN)"/><path class="navy" d="M14 80 H58" marker-end="url(#arrowN)"/>
    <path class="navy" d="M78 10 L112 53 L78 96"/>
    <path class="navy" d="M126 22 A46 46 0 0 1 197 33" marker-end="url(#arrowN)"/>
    <path class="navy" d="M207 53 A46 46 0 0 1 159 99" marker-end="url(#arrowN)"/>
    <path class="steel" d="M147 101 A46 46 0 0 1 121 43" marker-end="url(#arrowS)"/>
    <path class="yellow" d="M144 55 L161 72 L194 36"/>
  </g>
  <text x="285" y="93" class="txt" font-size="78">Л.Е.Г.О</text>
  <text x="292" y="129" class="sub" font-size="18">система внедрения управленческих изменений</text>
</svg>